<?xml version="1.0" standalone="no"?><svg xmlns="http://www.w3.org/2000/svg" viewBox="0 0 1440 320"><path fill="#22a7f0" fill-opacity="0.5" d="M0,288L34.3,282.7C68.6,277,137,267,206,261.3C274.3,256,343,256,411,266.7C480,277,549,299,617,304C685.7,309,754,299,823,277.3C891.4,256,960,224,1029,186.7C1097.1,149,1166,107,1234,117.3C1302.9,128,1371,192,1406,224L1440,256L1440,320L1405.7,320C1371.4,320,1303,320,1234,320C1165.7,320,1097,320,1029,320C960,320,891,320,823,320C754.3,320,686,320,617,320C548.6,320,480,320,411,320C342.9,320,274,320,206,320C137.1,320,69,320,34,320L0,320Z"></path></svg>